<svg width="24" height="24" viewBox="0 0 24 24" fill="none" xmlns="http://www.w3.org/2000/svg">
<path fill-rule="evenodd" clip-rule="evenodd" d="M-6.10352e-05 4.8C-6.10352e-05 2.14903 2.14897 0 4.79994 0H19.1999C21.8509 0 23.9999 2.14903 23.9999 4.8V19.2C23.9999 21.8509 21.8509 24 19.1999 24H4.79994C2.14897 24 -6.10352e-05 21.8509 -6.10352e-05 19.2V4.8ZM4.79994 2.4C3.47446 2.4 2.39994 3.47452 2.39994 4.8V19.2C2.39994 20.5255 3.47446 21.6 4.79994 21.6H11.9999V13.2H10.7999C10.1372 13.2 9.59994 12.6628 9.59994 12C9.59994 11.3372 10.1372 10.8 10.7999 10.8H11.9999V9C11.9999 6.6804 13.8803 4.8 16.1999 4.8H16.9199C17.5827 4.8 18.1199 5.33726 18.1199 6C18.1199 6.66274 17.5827 7.2 16.9199 7.2H16.1999C15.2059 7.2 14.3999 8.00588 14.3999 9V10.8H16.9199C17.5827 10.8 18.1199 11.3372 18.1199 12C18.1199 12.6628 17.5827 13.2 16.9199 13.2H14.3999V21.6H19.1999C20.5255 21.6 21.5999 20.5255 21.5999 19.2V4.8C21.5999 3.47452 20.5255 2.4 19.1999 2.4H4.79994Z" fill="white"/>
</svg>
