<svg width="18" height="18" viewBox="0 0 18 18" fill="none" xmlns="http://www.w3.org/2000/svg">
<path d="M9 13.5C7.9215 13.5 6.90525 13.2393 6 12.7878V16.5L9 15L12 16.5V12.7878C11.0947 13.2393 10.0785 13.5 9 13.5Z" fill="white"/>
<path d="M9 12C11.8995 12 14.25 9.6495 14.25 6.75C14.25 3.8505 11.8995 1.5 9 1.5C6.1005 1.5 3.75 3.8505 3.75 6.75C3.75 9.6495 6.1005 12 9 12ZM9 4.5C10.2427 4.5 11.25 5.50725 11.25 6.75C11.25 7.99275 10.2427 9 9 9C7.75725 9 6.75 7.99275 6.75 6.75C6.75 5.50725 7.75725 4.5 9 4.5Z" fill="white"/>
<path d="M9 7.5C9.41421 7.5 9.75 7.16421 9.75 6.75C9.75 6.33579 9.41421 6 9 6C8.58579 6 8.25 6.33579 8.25 6.75C8.25 7.16421 8.58579 7.5 9 7.5Z" fill="white"/>
</svg>
